:SAMPLES-PER-SECOND 30
:FULLY-SPECIFIED
:DEGREES
887
root  -58.049 37.2508 20.5077 30.4657 57.8426 12.5542
RightUpLeg  -6.84755 -38.4815 -1.32791
RightLeg  35.0853 -2.95721 -2.52499
RightFoot  -19.0193 0.258088 5.39695
RightToes  -2.32831e-009 0 -3.6325e-017
Spine  41.7385 1.8699 18.5382
Spine1  5.91928 14.4214 -25.6349
HEad  -66.6022 -20.9394 11.0043
LeftShoulder1  0.661994 1.35467 -24.5436
LeftArm  46.7298 -10.9051 -55.456
LeftForeArm  76.4441 -76.1797 -36.6696
LeftHand  0.00776597 1.93614 -0.611813
RightShoulder  0.142517 4.63676 -7.68716
RightArm  41.9374 32.496 112.101
RightForeArm  37.3837 41.1408 7.35638
RightHand  0.562952 9.59422 3.93814
LeftUpLeg  -50.4105 -19.6001 -0.970957
LeftLeg  24.0156 -33.7355 -14.9076
LeftFoot  7.76133 0.761564 -4.80675
LeftToes  8.91272e-011 -1.70619e-011 7.36378e-012
888
root  -58.3067 37.208 20.5327 29.8812 59.5302 11.7852
RightUpLeg  -8.6267 -38.7265 -2.55488
RightLeg  36.0851 -0.702968 -0.736456
RightFoot  -22.2318 0.736129 9.44032
RightToes  -2.32831e-009 0 -3.6325e-017
Spine  43.678 1.50299 16.7671
Spine1  6.20961 12.6582 -20.9068
HEad  -65.1229 -17.1915 6.16475
LeftShoulder1  0.69305 1.38071 -26.442
LeftArm  44.913 -7.87044 -51.3939
LeftForeArm  97.4381 -79.9539 -55.3293
LeftHand  -0.024745 2.69614 0.380907
RightShoulder  0.127822 3.61689 -7.64013
RightArm  20.5946 29.6573 97.5977
RightForeArm  38.2969 42.667 7.78743
RightHand  0.414584 8.61111 3.03574
LeftUpLeg  -50.8671 -19.7246 -0.0407515
LeftLeg  24.3026 -34.072 -15.2221
LeftFoot  7.66908 0.873688 -5.49527
LeftToes  8.91272e-011 -1.70619e-011 7.36378e-012
889
root  -58.6139 37.1528 20.5671 27.8993 59.8107 10.425
RightUpLeg  -8.79165 -38.3148 -3.88145
RightLeg  40.4597 4.2802 3.57317
RightFoot  -20.9256 0.830187 11.5656
RightToes  -2.32831e-009 0 -3.6325e-017
Spine  46.0506 1.49888 14.2498
Spine1  6.50219 11.4362 -17.6246
HEad  -64.8819 -13.4581 2.61636
LeftShoulder1  0.799927 1.11768 -27.4006
LeftArm  42.9824 -5.08891 -49.1475
LeftForeArm  130.078 -81.8362 -85.4572
LeftHand  0.00722407 3.20535 -1.34149
RightShoulder  0.135023 2.2367 -6.98231
RightArm  -0.686667 28.4848 83.6048
RightForeArm  36.861 45.4604 8.78679
RightHand  0.182634 9.19779 1.06371
LeftUpLeg  -50.8764 -19.6137 0.931326
LeftLeg  25.1979 -33.7183 -15.6617
LeftFoot  7.60489 0.888525 -5.60074
LeftToes  8.91272e-011 -1.70619e-011 7.36378e-012
890
root  -58.7533 37.0965 20.4436 26.3907 59.8833 9.16583
RightUpLeg  -7.62321 -38.6079 -5.23216
RightLeg  41.2218 8.69363 7.7876
RightFoot  -20.847 0.978331 13.3632
RightToes  -2.32831e-009 0 -3.6325e-017
Spine  46.5853 0.390778 14.0047
Spine1  7.72718 10.3697 -17.2464
HEad  -65.3634 -10.9332 0.186821
LeftShoulder1  0.805068 1.08128 -27.1207
LeftArm  41.9299 -4.36238 -49.3614
LeftForeArm  150.569 -81.637 -104.499
LeftHand  -0.00782886 4.41501 -2.10524
RightShoulder  0.178105 1.28428 -5.45894
RightArm  -20.4713 29.7311 69.6816
RightForeArm  32.5152 45.1474 8.98018
RightHand  0.120153 11.161 0.415447
LeftUpLeg  -51.3616 -20.6476 2.4217
LeftLeg  25.4218 -32.3376 -15.2446
LeftFoot  7.69793 0.878234 -5.51515
LeftToes  8.91272e-011 -1.70619e-011 7.36378e-012
891
root  -58.9911 36.9959 20.3015 25.6939 58.5835 8.64841
RightUpLeg  -7.52095 -36.2635 -6.33734
RightLeg  42.2148 11.8076 10.9916
RightFoot  -22.011 1.26586 15.1136
RightToes  -2.32831e-009 0 -3.6325e-017
Spine  46.888 0.0545978 12.8326
Spine1  8.53537 9.82365 -17.3429
HEad  -65.9721 -8.78492 -2.22013
LeftShoulder1  0.630218 1.63634 -27.613
LeftArm  40.9687 -5.06551 -49.2336
LeftForeArm  159.155 -81.1033 -114.021
LeftHand  -0.0605306 6.19002 -3.28084
RightShoulder  0.196373 0.658654 -4.28679
RightArm  -38.6436 30.6256 56.682
RightForeArm  35.9184 43.9784 8.35568
RightHand  0.178165 9.07236 1.02367
LeftUpLeg  -52.0303 -20.7805 3.28356
LeftLeg  25.4159 -30.7018 -14.5622
LeftFoot  7.86558 0.904997 -5.62979
LeftToes  8.91272e-011 -1.70619e-011 7.36378e-012
892
root  -59.2761 36.9343 20.0642 24.2728 56.2164 8.78351
RightUpLeg  -6.91106 -33.67 -9.25592
RightLeg  44.9043 14.8393 15.0543
RightFoot  -22.4076 1.32157 15.0998
RightToes  -2.32831e-009 0 -3.6325e-017
Spine  49.2154 0.246319 11.7461
Spine1  6.84456 10.0753 -18.2316
HEad  -65.3162 -8.23093 -4.30649
LeftShoulder1  0.86393 0.909604 -27.1503
LeftArm  39.5853 -4.24966 -49.5729
LeftForeArm  161.795 -80.6992 -118.405
LeftHand  -0.0766508 6.25995 -5.06987
RightShoulder  0.253069 0.303512 -2.08037
RightArm  -53.6727 29.1654 42.6412
RightForeArm  33.6978 41.0287 7.56169
RightHand  0.116113 9.38211 0.526924
LeftUpLeg  -50.5542 -18.9571 1.88651
LeftLeg  25.1525 -30.701 -14.3995
LeftFoot  8.22815 0.982607 -5.98557
LeftToes  8.91272e-011 -1.70619e-011 7.36378e-012
893
root  -59.501 36.7858 19.6761 23.4243 54.769 9.4494
RightUpLeg  -6.97303 -32.6326 -12.4501
RightLeg  48.8168 17.0208 19.5106
RightFoot  -23.1398 1.70255 17.906
RightToes  -2.32831e-009 0 -3.6325e-017
Spine  49.6847 -0.879001 11.7493
Spine1  6.10843 9.32099 -19.5174
HEad  -65.8368 -7.02913 -6.02115
LeftShoulder1  0.879206 0.852304 -27.0113
LeftArm  38.0963 -3.28906 -49.651
LeftForeArm  160.545 -80.6389 -118.46
LeftHand  -0.10666 7.02453 -4.36715
RightShoulder  0.287618 0.0269582 -0.350529
RightArm  -62.2678 28.6251 30.4735
RightForeArm  26.2221 38.7334 7.33542
RightHand  0.00630474 10.9668 -0.383868
LeftUpLeg  -49.5283 -17.6454 0.166637
LeftLeg  25.2309 -30.8711 -14.5162
LeftFoot  8.94085 1.05385 -6.19444
LeftToes  8.91272e-011 -1.70619e-011 7.36378e-012
894
root  -59.6947 36.6611 19.2187 21.9426 52.9661 9.90857
RightUpLeg  -7.39338 -31.9798 -15.6842
RightLeg  52.7202 14.9939 19.6357
RightFoot  -22.1852 1.63882 18.6719
RightToes  -2.32831e-009 0 -3.6325e-017
Spine  49.5774 -1.72172 11.425
Spine1  6.14562 8.42877 -19.779
HEad  -67.3248 -5.68177 -7.39929
LeftShoulder1  0.819412 1.06168 -27.4155
LeftArm  36.4123 -2.76554 -49.2068
LeftForeArm  157.487 -80.7234 -116.742
LeftHand  -0.143822 7.60664 -5.0012
RightShoulder  0.314477 -0.199243 1.20904
RightArm  -63.8229 28.608 19.8034
RightForeArm  26.3094 41.4797 8.17668
RightHand  0.0372942 10.3814 -0.138492
LeftUpLeg  -48.0231 -16.1119 -1.62512
LeftLeg  25.1516 -30.9986 -14.5187
LeftFoot  9.76747 1.10744 -6.26075
LeftToes  8.91272e-011 -1.70619e-011 7.36378e-012
895
root  -59.9447 36.6901 18.779 18.615 49.6067 8.98996
RightUpLeg  -8.43281 -29.841 -17.4486
RightLeg  54.7428 7.19887 10.4052
RightFoot  -20.0822 1.05661 15.5188
RightToes  -2.32831e-009 0 -3.6325e-017
Spine  50.4473 -1.6795 10.7301
Spine1  5.43644 8.3786 -20.0686
HEad  -69.3523 -4.81398 -7.55792
LeftShoulder1  0.814627 1.09806 -27.7388
LeftArm  35.1162 -2.17746 -48.7201
LeftForeArm  152.639 -81.0243 -112.297
LeftHand  -0.173454 8.08724 -5.20031
RightShoulder  0.333183 -0.45246 2.8779
RightArm  -63.5407 29.3493 12.3862
RightForeArm  26.7776 46.7191 9.99446
RightHand  0.00894352 9.91127 -0.350714
LeftUpLeg  -45.5222 -13.7167 -2.40175
LeftLeg  24.2251 -30.1939 -13.6386
LeftFoot  10.4511 1.1762 -6.43777
LeftToes  8.91272e-011 -1.70619e-011 7.36378e-012
896
root  -60.1032 36.8657 18.3471 14.5508 45.13 7.39493
RightUpLeg  -9.12569 -29.3637 -18.7718
RightLeg  55.6161 0.65583 0.696527
RightFoot  -20.0119 0.564521 9.28292
RightToes  -2.32831e-009 0 -3.6325e-017
Spine  50.8811 -1.85565 10.8466
Spine1  5.31217 8.7004 -21.485
HEad  -72.0211 -4.03455 -6.58514
LeftShoulder1  0.837278 0.979799 -27.0213
LeftArm  33.4304 -1.96763 -48.5195
LeftForeArm  148.757 -81.2669 -108.089
LeftHand  -0.179141 7.82586 -6.0431
RightShoulder  0.329276 -0.978841 5.24198
RightArm  -62.524 31.6979 8.4236
RightForeArm  25.2546 53.2655 13.0186
RightHand  -0.145184 9.14283 -1.54619
LeftUpLeg  -42.3109 -11.3253 -2.09451
LeftLeg  22.3322 -28.3212 -11.821
LeftFoot  11.0491 1.2316 -6.56281
LeftToes  8.91272e-011 -1.70619e-011 7.36378e-012
897
root  -60.3362 36.9838 17.8986 11.0704 40.7129 5.66327
RightUpLeg  -9.93342 -29.1407 -18.1349
RightLeg  53.2796 -3.30013 -5.14122
RightFoot  -20.4419 0.523282 8.37176
RightToes  -2.32831e-009 0 -3.6325e-017
Spine  50.4207 -1.61041 10.8996
Spine1  5.25388 9.01412 -21.7442
HEad  -75.4038 -2.96714 -5.06895
LeftShoulder1  0.767357 1.18807 -26.9745
LeftArm  31.6716 -1.61737 -48.7902
LeftForeArm  141.806 -81.5356 -101.134
LeftHand  -0.113394 6.80897 -5.67143
RightShoulder  0.322694 -1.28898 7.03057
RightArm  -61.0538 35.2405 6.98391
RightForeArm  27.4893 59.7602 16.9845
RightHand  -0.136855 9.0943 -1.49111
LeftUpLeg  -40.0895 -9.10535 -0.91963
LeftLeg  21.0718 -26.1662 -10.3328
LeftFoot  11.7154 1.20313 -6.24669
LeftToes  8.91272e-011 -1.70619e-011 7.36378e-012
898
root  -60.638 37.029 17.4766 8.49144 35.6567 4.79623
RightUpLeg  -10.338 -29.3051 -17.092
RightLeg  48.6122 -5.86401 -7.4016
RightFoot  -19.8939 0.716038 11.3904
RightToes  -2.32831e-009 0 -3.6325e-017
Spine  49.5825 -0.680205 10.2352
Spine1  5.0702 9.56554 -21.6806
HEad  -78.8065 -1.7393 -2.81204
LeftShoulder1  0.706745 1.359 -26.7753
LeftArm  29.7593 -1.16687 -49.0123
LeftForeArm  137.556 -81.6152 -97.1882
LeftHand  -0.0877943 6.33819 -5.71249
RightShoulder  0.303596 -1.62848 8.87561
RightArm  -57.2253 38.8532 8.69556
RightForeArm  33.2637 66.6599 23.3318
RightHand  -0.150498 8.59036 -1.62971
LeftUpLeg  -38.1501 -6.09207 -0.115437
LeftLeg  20.2384 -24.1665 -9.16721
LeftFoot  11.9972 1.25756 -6.44093
LeftToes  8.91272e-011 -1.70619e-011 7.36378e-012
